<svg xmlns="http://www.w3.org/2000/svg" width="32" height="32" viewBox="0 0 32 32"><defs><style>.cls-1{fill:#33bdcd;stroke-width:2px;}.cls-1,.cls-3{stroke:#0069b4;stroke-miterlimit:10;}.cls-2{fill:#0069b4;}.cls-3{fill:none;stroke-linecap:round;stroke-width:0.78px;}</style></defs><g id="Layer_2" data-name="Layer 2"><g id="page-02"><circle class="cls-1" cx="16" cy="16" r="15"/><path class="cls-2" d="M16.62,9.86a.82.82,0,0,0-.83,0l0,0-3.66,3H9.22a.27.27,0,0,0-.27.26v5a.22.22,0,0,0,.08.18.26.26,0,0,0,.19.08h2.86l3.66,3.24,0,0a.82.82,0,0,0,.43.12.8.8,0,0,0,.4-.11.79.79,0,0,0,.43-.71V10.58A.82.82,0,0,0,16.62,9.86Z"/><line class="cls-3" x1="18.78" y1="13.26" x2="23.78" y2="18.26"/><line class="cls-3" x1="23.78" y1="13.26" x2="18.78" y2="18.26"/></g></g></svg>