<svg xmlns="http://www.w3.org/2000/svg" width="32" height="32" viewBox="0 0 32 32"><defs><style>.cls-1{fill:#33bdcd;stroke:#0069b4;stroke-miterlimit:10;stroke-width:2px;}.cls-2{fill:#0069b4;}</style></defs><g id="Layer_2" data-name="Layer 2"><g id="page-02"><circle class="cls-1" cx="16" cy="16" r="15"/><path class="cls-2" d="M16.62,9.86a.82.82,0,0,0-.83,0l0,0-3.66,3H9.22a.27.27,0,0,0-.27.26v5a.22.22,0,0,0,.08.18.26.26,0,0,0,.19.08h2.86l3.66,3.24,0,0a.82.82,0,0,0,.43.12.8.8,0,0,0,.4-.11.79.79,0,0,0,.43-.71V10.58A.82.82,0,0,0,16.62,9.86Z"/><path class="cls-2" d="M20.37,10.82A.26.26,0,0,0,20,11a.26.26,0,0,0,.17.33,4.51,4.51,0,0,1,0,8.64.26.26,0,0,0-.17.33.27.27,0,0,0,.26.17h.09a5,5,0,0,0,0-9.62Z"/><path class="cls-2" d="M21.51,15.63a3.55,3.55,0,0,0-2.63-3.38.28.28,0,0,0-.34.18.26.26,0,0,0,.19.32,3,3,0,0,1,0,5.76.26.26,0,0,0-.19.32.28.28,0,0,0,.26.19h.08A3.55,3.55,0,0,0,21.51,15.63Z"/></g></g></svg>