<svg xmlns="http://www.w3.org/2000/svg" width="30.16" height="25" viewBox="0 0 30.16 25"><defs><style>.cls-1{fill:#33bdcd;}</style></defs><g id="Layer_2" data-name="Layer 2"><g id="page-02"><path class="cls-1" d="M15.44.22a1.66,1.66,0,0,0-1.68,0l-.07,0L6.32,6.52H.54A.55.55,0,0,0,0,7.07V17.39a.57.57,0,0,0,.16.39.54.54,0,0,0,.38.15H6.31l7.36,6.76.09.07a1.65,1.65,0,0,0,1.68,0,1.68,1.68,0,0,0,.86-1.5V1.72A1.71,1.71,0,0,0,15.44.22Z"/><path class="cls-1" d="M23,2.2a.55.55,0,0,0-.69.34.54.54,0,0,0,.34.69,9.51,9.51,0,0,1,0,18,.54.54,0,0,0,.18,1.05.51.51,0,0,0,.17,0,10.59,10.59,0,0,0,0-20Z"/><path class="cls-1" d="M25.27,12.23a7.38,7.38,0,0,0-5.3-7,.54.54,0,0,0-.67.38.54.54,0,0,0,.37.67,6.25,6.25,0,0,1,0,12,.54.54,0,0,0,.15,1.06.39.39,0,0,0,.15,0A7.37,7.37,0,0,0,25.27,12.23Z"/></g></g></svg>