<svg xmlns="http://www.w3.org/2000/svg" width="31.06" height="25" viewBox="0 0 31.06 25"><defs><style>.cls-1{fill:#fff;}.cls-2{fill:none;stroke:#fff;stroke-linecap:round;stroke-miterlimit:10;stroke-width:2px;}</style></defs><g id="Layer_2" data-name="Layer 2"><g id="page-02"><path class="cls-1" d="M15.44.22a1.66,1.66,0,0,0-1.68,0l-.07,0L6.32,6.52H.54A.55.55,0,0,0,0,7.07V17.39a.57.57,0,0,0,.16.39.54.54,0,0,0,.38.15H6.31l7.36,6.76.09.07a1.65,1.65,0,0,0,1.68,0,1.68,1.68,0,0,0,.86-1.5V1.72A1.71,1.71,0,0,0,15.44.22Z"/><line class="cls-2" x1="20.06" y1="7.81" x2="30.06" y2="17.81"/><line class="cls-2" x1="30.06" y1="7.81" x2="20.06" y2="17.81"/></g></g></svg>