<svg xmlns="http://www.w3.org/2000/svg" width="41" height="41" viewBox="0 0 41 41"><defs><style>.cls-1{fill:#33bdcd;}.cls-1,.cls-3{stroke:#fff;stroke-miterlimit:10;}.cls-2{fill:#fff;}.cls-3{fill:none;stroke-linecap:round;}</style></defs><g id="Layer_2" data-name="Layer 2"><g id="page-02"><circle class="cls-1" cx="20.5" cy="20.5" r="20"/><path class="cls-2" d="M20.74,12.14a1.11,1.11,0,0,0-1.14,0l-.05,0-5,4.24H10.61a.37.37,0,0,0-.37.37v7a.38.38,0,0,0,.37.37h3.92l5,4.6.06,0a1.12,1.12,0,0,0,.59.17,1.08,1.08,0,0,0,.55-.15,1.16,1.16,0,0,0,.59-1V13.16A1.16,1.16,0,0,0,20.74,12.14Z"/><line class="cls-3" x1="23.73" y1="17.25" x2="30.23" y2="23.75"/><line class="cls-3" x1="30.23" y1="17.25" x2="23.73" y2="23.75"/></g></g></svg>