<svg xmlns="http://www.w3.org/2000/svg" width="41" height="41" viewBox="0 0 41 41"><defs><style>.cls-1{fill:#33bdcd;stroke:#fff;stroke-miterlimit:10;}.cls-2{fill:#fff;}</style></defs><g id="Layer_2" data-name="Layer 2"><g id="page-02"><circle class="cls-1" cx="20.5" cy="20.5" r="20"/><path class="cls-2" d="M20.74,12.14a1.11,1.11,0,0,0-1.14,0l-.05,0-5,4.24H10.61a.37.37,0,0,0-.37.37v7a.38.38,0,0,0,.37.37h3.92l5,4.6.06,0a1.12,1.12,0,0,0,.59.17,1.08,1.08,0,0,0,.55-.15,1.16,1.16,0,0,0,.59-1V13.16A1.16,1.16,0,0,0,20.74,12.14Z"/><path class="cls-2" d="M25.87,13.49a.38.38,0,0,0-.47.23.36.36,0,0,0,.23.47,6.47,6.47,0,0,1,0,12.25.36.36,0,0,0-.23.47.38.38,0,0,0,.35.25l.12,0a7.21,7.21,0,0,0,0-13.65Z"/><path class="cls-2" d="M27.43,20.32a5,5,0,0,0-3.6-4.8.38.38,0,0,0-.46.25.37.37,0,0,0,.25.46,4.25,4.25,0,0,1,0,8.17.37.37,0,0,0-.25.46.37.37,0,0,0,.36.26h.1A5,5,0,0,0,27.43,20.32Z"/></g></g></svg>